# xmcd CD database file generated by Grip 3.0.6
# 
# Track frame offsets:
#       150
#       6865
#       35460
#       51872
#       75205
#       97907
#       118860
#       132607
#       167884
#       174205
#       210085
#       234175
#       254017
#       269345
#       277382
#       303985
# 
# Disc length: 4408 seconds
# 
# Revision: 2
# Processed by: cddbd v1.4PL0 Copyright (c) Steve Scherf et al.
# Submitted via: Grip 3.0.6
# 
DISCID=d4113610
DTITLE=Various Artist - Pro Mark Collector's Edition
DYEAR=2002
DGENRE=Other
TTITLE0=Intro
TTITLE1=Herb Brochstein - Tri-Fi
TTITLE2=Dave Abbruzzese - 2926 Refugee
TTITLE3=Charlie Adams - Companys Coming
TTITLE4=Phil Collins - Rad Dudeski
TTITLE5=Jimmy Degrasso - Rocco
TTITLE6=Hip Pickles - Chicken Funklets
TTITLE7=Elvin Jones - Blue Train
TTITLE8=Dave Lombardo - Toque de Muerto
TTITLE9=Dave Mattacks - Julia's paper Round
TTITLE10=Herman Matthews - The Moon's Faithful Return
TTITLE11=Marco Minnemann - The Golden Dolphin
TTITLE12=John Molo - Nitrous
TTITLE13=Stephen Perkins - Release
TTITLE14=Mike Portnoy - Portnuy's Complaint
TTITLE15=Paul Wertico - Mein Herr Ball
EXTD=
EXTT0=
EXTT1=
EXTT2=
EXTT3=
EXTT4=
EXTT5=
EXTT6=
EXTT7=
EXTT8=
EXTT9=
EXTT10=
EXTT11=
EXTT12=
EXTT13=
EXTT14=
EXTT15=
PLAYORDER=
